<svg width="72" height="60" viewBox="0 0 72 60" fill="none" xmlns="http://www.w3.org/2000/svg">
<path fill-rule="evenodd" clip-rule="evenodd" d="M36.1075 23.6549C44.4709 23.6549 52.1826 26.5337 58.2922 31.3404C59.134 28.9235 59.5685 26.3434 59.5685 23.6549C59.5685 10.7013 49.0599 0.19165 36.1075 0.19165C23.1551 0.19165 12.6465 10.7013 12.6465 23.6549C12.6465 26.3434 13.1081 28.9235 13.9227 31.3404C20.0323 26.5337 27.7169 23.6549 36.1075 23.6549Z" fill="#96C51A"/>
<path fill-rule="evenodd" clip-rule="evenodd" d="M58.2926 31.3403C55.1156 40.5192 46.372 47.1181 36.1079 47.1181C25.8437 47.1181 17.1001 40.5192 13.9231 31.3403C5.61397 37.9122 0.264648 48.0687 0.264648 59.5016H71.9511C71.9511 48.0959 66.6017 37.9122 58.2926 31.3403Z" fill="#F8B800"/>
</svg>
